<svg width="200" height="200" viewBox="0 0 200 200" fill="none" xmlns="http://www.w3.org/2000/svg">
  <rect width="200" height="200" rx="24" fill="#0B0B0B"/>
  <circle cx="100" cy="66" r="34" stroke="#FFFFFF" stroke-width="6"/>
  <path d="M100 46L105.5 60.5L121 61L109 70L113.5 84L100 76L86.5 84L91 70L79 61L94.5 60.5L100 46Z" fill="#FFFFFF"/>
  <path d="M74 59L77.5 68L87 68.5L79.5 74.5L82.5 84L74 79L65.5 84L68.5 74.5L61 68.5L70.5 68L74 59Z" fill="#FFFFFF" opacity="0.9"/>
  <path d="M126 59L129.5 68L139 68.5L131.5 74.5L134.5 84L126 79L117.5 84L120.5 74.5L113 68.5L122.5 68L126 59Z" fill="#FFFFFF" opacity="0.9"/>
  <text x="100" y="136" text-anchor="middle" fill="#FFFFFF" font-family="Arial, Helvetica, sans-serif" font-size="26" font-weight="700" letter-spacing="2">
    EUROPA
  </text>
  <text x="100" y="160" text-anchor="middle" fill="#FFFFFF" font-family="Arial, Helvetica, sans-serif" font-size="12" letter-spacing="4">
    BARBEARIA
  </text>
</svg>
